<svg width="35" height="35" viewBox="0 0 35 35" fill="none" xmlns="http://www.w3.org/2000/svg">
<path d="M10.5214 22.0773C10.195 23.2225 11.2557 24.2798 12.3999 23.9497C12.6491 23.8778 12.8758 23.7432 13.0581 23.5586L30.8935 5.50967C31.0364 5.36326 31.1159 5.16652 31.115 4.96195C31.114 4.75738 31.0326 4.5614 30.8884 4.41633L29.8036 3.31958C29.7335 3.24755 29.6497 3.19021 29.5572 3.1509C29.4647 3.11159 29.3653 3.09109 29.2648 3.09062C29.1643 3.09014 29.0647 3.10969 28.9719 3.14812C28.879 3.18655 28.7947 3.2431 28.7239 3.31446L10.9411 21.3108C10.7556 21.4986 10.6204 21.7301 10.548 21.984L10.5214 22.0773ZM31.951 1.14658L33.0357 2.24504C34.5322 3.76033 34.5459 6.20496 33.0631 7.70487L14.765 26.224C14.5243 26.4677 14.225 26.6454 13.8958 26.7402L11.1827 27.5215L7.96767 28.4475C7.77327 28.5021 7.57002 28.5179 7.36952 28.494C7.16901 28.4701 6.97518 28.4069 6.7991 28.3081C6.62301 28.2092 6.46812 28.0767 6.34326 27.918C6.2184 27.7593 6.12603 27.5776 6.07142 27.3832C5.98763 27.1013 5.98645 26.8013 6.068 26.5187L7.79812 20.4515C7.8903 20.1282 8.06248 19.8334 8.29875 19.5943L26.5543 1.11754C26.9083 0.761111 27.3297 0.47873 27.794 0.286868C28.2582 0.0950064 28.756 -0.00249572 29.2584 4.85386e-05C29.7607 0.0025928 30.2575 0.105133 30.7198 0.301687C31.1821 0.498242 31.6006 0.786585 31.951 1.14658ZM12.2727 3.11629C13.12 3.11629 13.8067 3.81158 13.8067 4.66917C13.8081 4.87189 13.7695 5.07289 13.6931 5.26068C13.6167 5.44847 13.5041 5.61936 13.3616 5.76358C13.2191 5.9078 13.0496 6.02252 12.8628 6.10119C12.6759 6.17986 12.4754 6.22092 12.2727 6.22204H6.13633C4.44167 6.22204 3.06817 7.61263 3.06817 9.32608V27.9572C3.06817 29.6723 4.44167 31.0629 6.13633 31.0629H24.5453C26.24 31.0629 27.6152 29.6723 27.6152 27.9572V21.7474C27.6152 20.8898 28.302 20.1945 29.1493 20.1945C29.9966 20.1945 30.6834 20.8898 30.6834 21.7491V27.9572C30.6834 31.3875 27.9347 34.1687 24.5453 34.1687H6.13633C2.747 34.1687 0 31.3875 0 27.9572V9.32608C0 5.89746 2.747 3.11629 6.13633 3.11629H12.2727Z" fill="#40B3C2"/>
</svg>
