<svg width="40" height="40" viewBox="0 0 40 40" fill="none" xmlns="http://www.w3.org/2000/svg">
<rect width="40" height="40" rx="4" fill="#40B3C2"/>
<path d="M13.4941 30V25.7C12.5441 24.8333 11.8066 23.8208 11.2816 22.6625C10.7566 21.5042 10.4941 20.2833 10.4941 19C10.4941 16.5 11.3691 14.375 13.1191 12.625C14.8691 10.875 16.9941 10 19.4941 10C21.5774 10 23.4233 10.6125 25.0316 11.8375C26.6399 13.0625 27.6858 14.6583 28.1691 16.625L29.4691 21.75C29.5524 22.0667 29.4941 22.3542 29.2941 22.6125C29.0941 22.8708 28.8274 23 28.4941 23H26.4941V26C26.4941 26.55 26.2983 27.0208 25.9066 27.4125C25.5149 27.8042 25.0441 28 24.4941 28H22.4941V30H20.4941V26H24.4941V21H27.1941L26.2441 17.125C25.8608 15.6083 25.0441 14.375 23.7941 13.425C22.5441 12.475 21.1108 12 19.4941 12C17.5608 12 15.9108 12.675 14.5441 14.025C13.1774 15.375 12.4941 17.0167 12.4941 18.95C12.4941 19.95 12.6983 20.9 13.1066 21.8C13.5149 22.7 14.0941 23.5 14.8441 24.2L15.4941 24.8V30H13.4941ZM18.4941 23H20.4941L20.6441 21.75C20.7774 21.7 20.8983 21.6417 21.0066 21.575C21.1149 21.5083 21.2108 21.4333 21.2941 21.35L22.4441 21.85L23.4441 20.15L22.4441 19.4C22.4774 19.2667 22.4941 19.1333 22.4941 19C22.4941 18.8667 22.4774 18.7333 22.4441 18.6L23.4441 17.85L22.4441 16.15L21.2941 16.65C21.2108 16.5667 21.1149 16.4917 21.0066 16.425C20.8983 16.3583 20.7774 16.3 20.6441 16.25L20.4941 15H18.4941L18.3441 16.25C18.2108 16.3 18.0899 16.3583 17.9816 16.425C17.8733 16.4917 17.7774 16.5667 17.6941 16.65L16.5441 16.15L15.5441 17.85L16.5441 18.6C16.5108 18.7333 16.4941 18.8667 16.4941 19C16.4941 19.1333 16.5108 19.2667 16.5441 19.4L15.5441 20.15L16.5441 21.85L17.6941 21.35C17.7774 21.4333 17.8733 21.5083 17.9816 21.575C18.0899 21.6417 18.2108 21.7 18.3441 21.75L18.4941 23ZM19.4941 20.5C19.0774 20.5 18.7233 20.3542 18.4316 20.0625C18.1399 19.7708 17.9941 19.4167 17.9941 19C17.9941 18.5833 18.1399 18.2292 18.4316 17.9375C18.7233 17.6458 19.0774 17.5 19.4941 17.5C19.9108 17.5 20.2649 17.6458 20.5566 17.9375C20.8483 18.2292 20.9941 18.5833 20.9941 19C20.9941 19.4167 20.8483 19.7708 20.5566 20.0625C20.2649 20.3542 19.9108 20.5 19.4941 20.5Z" fill="white"/>
</svg>
